# xmcd CD database file
#
# Track frame offsets:
#	150
#	27567
#	55827
#	88415
#	121541
#	143312
#	176113
#
# Disc length: 2849 seconds
#
# Revision: 0
# Processed by: cddbd v1.5PL3 Copyright (c) Steve Scherf et al.
# Submitted via: CDex 1.51
#
DISCID=570b1f07
DTITLE=Tim Mac Brian - Les Terres Du Milieu
DYEAR=1998
DGENRE=New Age
TTITLE0=Sur Le Toit Du Monde
TTITLE1=Les Terres Du Milieu
TTITLE2=L'Ame Des Geants
TTITLE3=Le Soleil Des Steppes
TTITLE4=Terre De Feu
TTITLE5=La Montagne D'ambre
TTITLE6=Les Vents De L'Oural
EXTD=YEAR: 1998
EXTT0=
EXTT1=
EXTT2=
EXTT3=
EXTT4=
EXTT5=
EXTT6=
PLAYORDER=
